<svg version="1.1" xmlns="http://www.w3.org/2000/svg" viewBox="0 0 1572.6425688012619 1303.4861926487356" width="3145.2851376025237" height="2606.972385297471">
  <!-- svg-source:excalidraw -->
  
  <defs>
    <style class="style-fonts">
      @font-face {
        font-family: "Virgil";
        src: url("https://excalidraw.com/Virgil.woff2");
      }
      @font-face {
        font-family: "Cascadia";
        src: url("https://excalidraw.com/Cascadia.woff2");
      }
      @font-face {
        font-family: "Assistant";
        src: url("https://excalidraw.com/Assistant-Regular.woff2");
      }
    </style>
    
  </defs>
  <rect x="0" y="0" width="1572.6425688012619" height="1303.4861926487356" fill="#ffffff"></rect><g stroke-linecap="round" transform="translate(10 615.5758659429707) rotate(0 50.66104036365884 50.66104036365891)"><path d="M67.09 2.48 C74.76 4.14, 83.45 10.35, 89.03 16.81 C94.61 23.26, 98.97 32.91, 100.57 41.23 C102.17 49.54, 101.63 58.83, 98.65 66.71 C95.68 74.59, 88.98 82.78, 82.71 88.52 C76.43 94.26, 69.27 99.58, 60.98 101.12 C52.69 102.67, 41.11 100.57, 32.97 97.77 C24.83 94.98, 17.38 90.77, 12.16 84.36 C6.94 77.94, 3.17 67.77, 1.64 59.29 C0.12 50.81, 0.45 41.25, 3.01 33.49 C5.58 25.72, 10.49 18.16, 17.03 12.68 C23.56 7.2, 33.13 1.87, 42.22 0.6 C51.31 -0.66, 65.95 3.89, 71.56 5.09 C77.17 6.3, 76.16 7.01, 75.87 7.83 M67.41 2.86 C74.94 4.42, 82.02 9.37, 87.46 15.61 C92.91 21.84, 98.03 31.74, 100.1 40.26 C102.17 48.78, 102.54 58.68, 99.88 66.71 C97.22 74.73, 90.71 82.78, 84.13 88.4 C77.55 94.02, 68.33 98.7, 60.39 100.43 C52.44 102.16, 44.14 101.61, 36.45 98.79 C28.75 95.98, 20.31 89.61, 14.22 83.52 C8.13 77.42, 2.12 70.08, -0.09 62.22 C-2.29 54.36, -1.75 44.69, 0.98 36.35 C3.72 28.01, 9.67 18.04, 16.32 12.17 C22.97 6.3, 32.47 3, 40.87 1.13 C49.27 -0.74, 62.39 0.33, 66.72 0.94 C71.05 1.55, 67.23 3.56, 66.86 4.78" stroke="#1e1e1e" stroke-width="2" fill="none"></path></g><g stroke-linecap="round" transform="translate(32.48094939374516 638.0415355813634) rotate(0 27.858183833029692 27.85818383302967)"><path d="M40.53 2.25 C45.81 4.58, 51.3 11.49, 53.66 17.01 C56.01 22.53, 56.6 29.76, 54.66 35.38 C52.71 40.99, 46.87 47.25, 41.98 50.71 C37.09 54.18, 31.22 56.95, 25.31 56.18 C19.39 55.41, 10.71 50.48, 6.49 46.1 C2.26 41.72, -0.05 35.88, -0.06 29.9 C-0.07 23.93, 2.77 15.2, 6.41 10.26 C10.06 5.32, 15.16 0.63, 21.83 0.26 C28.5 -0.1, 41.33 5.8, 46.43 8.06 C51.52 10.32, 52.63 13.47, 52.41 13.83 M40.67 3.39 C46.12 5.33, 51.81 10.59, 54.41 15.9 C57.02 21.21, 58.12 29.63, 56.31 35.25 C54.49 40.87, 48.61 46.14, 43.52 49.62 C38.42 53.1, 31.42 56.32, 25.72 56.14 C20.02 55.96, 13.69 52.74, 9.31 48.54 C4.93 44.35, 0.36 36.98, -0.58 30.96 C-1.52 24.95, 0.01 17.46, 3.67 12.44 C7.33 7.43, 15.31 2.75, 21.41 0.87 C27.51 -1.01, 37.55 0.68, 40.28 1.14 C43.02 1.61, 38.41 2.83, 37.83 3.63" stroke="#1e1e1e" stroke-width="2" fill="none"></path></g><g stroke-linecap="round"><g transform="translate(60.33913322677472 665.8997194143926) rotate(0 9.286061277676563 4.643030638838354)"><path d="M0.52 -0.17 C3.52 1.3, 15.44 7.68, 18.37 9.26 M0.12 -0.74 C3 0.79, 14.65 8.16, 17.83 9.95" stroke="#1e1e1e" stroke-width="2" fill="none"></path></g></g><mask></mask><g stroke-linecap="round"><g transform="translate(60.33913322677472 665.8997194143926) rotate(0 4.643030638838281 -9.286061277676481)"><path d="M-0.2 -0.02 C1.18 -3.08, 7.26 -15.43, 8.84 -18.5 M0.69 -0.51 C2.2 -3.45, 8.47 -14.88, 9.84 -17.76" stroke="#1e1e1e" stroke-width="2" fill="none"></path></g></g><mask></mask><g stroke-linecap="round"><g transform="translate(32.48094939374516 665.8997194143926) rotate(0 4.643030638838281 0)"><path d="M-0.29 0.05 C1.28 0.06, 7.72 0.13, 9.28 0.06 M0.21 -0.24 C1.74 -0.34, 7.4 -0.54, 8.99 -0.53" stroke="#1e1e1e" stroke-width="2" fill="none"></path></g></g><mask></mask><g stroke-linecap="round"><g transform="translate(60.33913322677472 684.4718419697451) rotate(0 0 4.643030638838354)"><path d="M-0.01 0.06 C0 1.54, -0.22 7.34, -0.25 8.93 M-0.44 -0.21 C-0.3 1.3, 0.44 7.65, 0.42 9.2" stroke="#1e1e1e" stroke-width="2" fill="none"></path></g></g><mask></mask><g stroke-linecap="round"><g transform="translate(60.33913322677472 638.0415355813634) rotate(0 0 4.643030638838354)"><path d="M-0.25 -0.35 C-0.28 1.24, -0.28 8.06, -0.19 9.61 M0.27 0.23 C0.36 1.73, 0.52 7.66, 0.5 9.15" stroke="#1e1e1e" stroke-width="2" fill="none"></path></g></g><mask></mask><g stroke-linecap="round"><g transform="translate(78.91125578212791 665.8997194143926) rotate(0 4.643030638838281 0)"><path d="M-0.19 0.32 C1.43 0.33, 7.99 -0.28, 9.53 -0.34 M0.35 0.18 C1.98 0.25, 7.81 -0.08, 9.37 -0.06" stroke="#1e1e1e" stroke-width="2" fill="none"></path></g></g><mask></mask><g stroke-opacity="0.2" fill-opacity="0.2" stroke-linecap="round" transform="translate(562.3629040414031 481.2525745734065) rotate(0 498.3122354373904 180.64158414314193)"><path d="M32 0 C255.36 -5.15, 475.5 -4.94, 964.62 0 C988.15 -1.35, 995.79 12.38, 996.62 32 C1002.9 94.32, 1000.78 152.81, 996.62 329.28 C996.57 350.86, 983.32 358.16, 964.62 361.28 C608.65 365.1, 253.38 365.05, 32 361.28 C9.09 360.19, 1.43 348.03, 0 329.28 C1.78 243.35, 0.23 152.22, 0 32 C-0.26 7.54, 11.81 3.39, 32 0" stroke="none" stroke-width="0" fill="#b2f2bb"></path><path d="M32 0 C346.9 -0.83, 662.84 -0.04, 964.62 0 M964.62 0 C987.96 -1.38, 995.6 12.58, 996.62 32 M996.62 32 C998.69 140.1, 998.48 250.08, 996.62 329.28 M996.62 329.28 C998.61 349.97, 984.92 359.46, 964.62 361.28 M964.62 361.28 C762.81 360.03, 560.68 359.85, 32 361.28 M32 361.28 C9.73 359.84, 0.26 350.03, 0 329.28 M0 329.28 C-0.87 249.06, -1.65 168.04, 0 32 M0 32 C-0.84 11.33, 9.24 0.68, 32 0" stroke="#1e1e1e" stroke-width="1.5" fill="none" stroke-dasharray="8 9"></path></g><g stroke-opacity="0.5" fill-opacity="0.5" transform="translate(582.7313358208854 502.98026961694404) rotate(0 76.171875 12)"><text x="0" y="0" font-family="Cascadia, Segoe UI Emoji" font-size="20px" fill="#1e1e1e" text-anchor="start" style="white-space: pre;" direction="ltr" dominant-baseline="text-before-edge">Billboard.sol</text></g><g stroke-linecap="round" transform="translate(714.6278435684147 627.051206917045) rotate(0 154.26753007540054 35.67791083219481)"><path d="M17.84 0 C93.48 0.6, 167.76 -0.05, 290.7 0 M17.84 0 C74.27 1.46, 130.21 1.31, 290.7 0 M290.7 0 C303.93 1.59, 308.34 4.77, 308.54 17.84 M290.7 0 C304.77 1.14, 306.86 4.96, 308.54 17.84 M308.54 17.84 C309.46 29.95, 307.65 40.74, 308.54 53.52 M308.54 17.84 C308.54 24.71, 308.71 32.96, 308.54 53.52 M308.54 53.52 C309.38 64.31, 304.01 70.87, 290.7 71.36 M308.54 53.52 C308.16 64.59, 302.46 72.31, 290.7 71.36 M290.7 71.36 C223.58 74.07, 158.56 72.31, 17.84 71.36 M290.7 71.36 C193.51 71.86, 95.88 71.67, 17.84 71.36 M17.84 71.36 C4.74 72.66, -0.04 64.19, 0 53.52 M17.84 71.36 C5.45 73.55, 0.94 65.74, 0 53.52 M0 53.52 C-0.4 46.7, 1.33 37.8, 0 17.84 M0 53.52 C-0.97 43.31, -0.19 33.72, 0 17.84 M0 17.84 C0.95 4.93, 4.8 0.81, 17.84 0 M0 17.84 C2.13 4.64, 5.49 -0.95, 17.84 0" stroke="#1e1e1e" stroke-width="2" fill="none"></path></g><g transform="translate(792.7234986438153 650.7291177492398) rotate(0 76.171875 12)"><text x="76.171875" y="0" font-family="Cascadia, Segoe UI Emoji" font-size="20px" fill="#1e1e1e" text-anchor="middle" style="white-space: pre;" direction="ltr" dominant-baseline="text-before-edge">Clear Auction</text></g><g stroke-linecap="round"><g transform="translate(1032.6326176133125 663.1537464741332) rotate(0 88.99731217531576 0.35553425017019435)"><path d="M-1.06 0.5 C28.83 0.45, 149.02 0.13, 178.69 0.08 M0.58 -0.28 C30.44 -0.21, 148.32 1.04, 178.1 1.28" stroke="#1e1e1e" stroke-width="2" fill="none"></path></g><g transform="translate(1032.6326176133125 663.1537464741332) rotate(0 88.99731217531576 0.35553425017019435)"><path d="M154.53 9.61 C161.09 8.94, 164.95 4.01, 178.1 1.28 M154.53 9.61 C160.98 8.18, 165.56 4.26, 178.1 1.28" stroke="#1e1e1e" stroke-width="2" fill="none"></path></g><g transform="translate(1032.6326176133125 663.1537464741332) rotate(0 88.99731217531576 0.35553425017019435)"><path d="M154.69 -7.49 C161.27 -3.99, 165.08 -4.75, 178.1 1.28 M154.69 -7.49 C161.19 -4.55, 165.73 -4.1, 178.1 1.28" stroke="#1e1e1e" stroke-width="2" fill="none"></path></g></g><mask></mask><g transform="translate(1096.228488295265 631.0951710068452) rotate(0 17.578125 12)"><text x="0" y="0" font-family="Cascadia, Segoe UI Emoji" font-size="20px" fill="#1e1e1e" text-anchor="start" style="white-space: pre;" direction="ltr" dominant-baseline="text-before-edge">tax</text></g><g stroke-linecap="round" transform="translate(1228.2813023560284 608.5023314588648) rotate(0 47.20981087879659 38.10912444432984)"><path d="M0 0 C38.62 -0.26, 77.32 1.26, 94.42 0 M0 0 C35.85 1.04, 71.44 0.06, 94.42 0 M94.42 0 C92.67 30.87, 95.23 56.6, 94.42 76.22 M94.42 0 C94.59 16.9, 93.31 33.84, 94.42 76.22 M94.42 76.22 C56.51 77.21, 24.06 74.18, 0 76.22 M94.42 76.22 C74.03 76.73, 51.26 77.44, 0 76.22 M0 76.22 C0.13 56.74, 0.8 33.03, 0 0 M0 76.22 C0.41 49.59, 0.31 23.35, 0 0" stroke="#000000" stroke-width="2" fill="none"></path></g><g stroke-linecap="round" transform="translate(1226.0061307474116 634.6668049579566) rotate(0 26.164473499092082 12.513443847391954)"><path d="M6.26 0 C20.89 1.47, 33.4 1.67, 46.07 0 M6.26 0 C14.03 -0.91, 23.23 -0.3, 46.07 0 M46.07 0 C50.12 -1.56, 54.12 3.09, 52.33 6.26 M46.07 0 C48.46 -1.81, 51.47 1.38, 52.33 6.26 M52.33 6.26 C52.48 11.6, 53.1 14.24, 52.33 18.77 M52.33 6.26 C51.94 8.36, 53.02 11.75, 52.33 18.77 M52.33 18.77 C54.15 22.89, 49.12 26.41, 46.07 25.03 M52.33 18.77 C51.76 22.82, 51.19 25.13, 46.07 25.03 M46.07 25.03 C32.04 24.16, 16.09 25.12, 6.26 25.03 M46.07 25.03 C34.83 25.74, 24.29 25.86, 6.26 25.03 M6.26 25.03 C1.03 25.41, 0.32 22.92, 0 18.77 M6.26 25.03 C1.82 24.75, 1.73 22.74, 0 18.77 M0 18.77 C-0.24 14.48, 0.01 10.46, 0 6.26 M0 18.77 C-0.65 14.93, -0.01 11.43, 0 6.26 M0 6.26 C1.83 2.78, 3.93 1.45, 6.26 0 M0 6.26 C-0.14 1.62, 2.9 0.29, 6.26 0" stroke="#000000" stroke-width="2" fill="none"></path></g><g transform="translate(1196.8960011968516 694.7861331853178) rotate(0 85.07357025146484 14.788615456008529)"><text x="0" y="0" font-family="Virgil, Segoe UI Emoji" font-size="22.751716086167054px" fill="#000000" text-anchor="start" style="white-space: pre;" direction="ltr" dominant-baseline="text-before-edge">Billboard Owner</text></g><g stroke-opacity="0.5" fill-opacity="0.5" transform="translate(720.2668664440257 631.3275537364166) rotate(0 18.75 9.599999999999909)"><text x="0" y="0" font-family="Cascadia, Segoe UI Emoji" font-size="16px" fill="#1e1e1e" text-anchor="start" style="white-space: pre;" direction="ltr" dominant-baseline="text-before-edge">func</text></g><g stroke-opacity="0.2" fill-opacity="0.2" stroke-linecap="round" transform="translate(566.0180979264811 932.2030243624517) rotate(0 498.3122354373904 180.64158414314193)"><path d="M32 0 C224.09 -1.9, 416.84 -2.56, 964.62 0 C984.27 -0.23, 998.04 7.13, 996.62 32 C997.13 110.05, 993.94 185.3, 996.62 329.28 C996.26 351.84, 985.88 360.61, 964.62 361.28 C627.71 367.19, 292.16 367.13, 32 361.28 C11.28 361.52, 2.65 351.13, 0 329.28 C2.15 251.12, 5.09 167.84, 0 32 C-1.28 7.52, 10.76 3.26, 32 0" stroke="none" stroke-width="0" fill="#ffec99"></path><path d="M32 0 C238.19 -3.12, 444.04 -4.24, 964.62 0 M964.62 0 C986.99 1.68, 996.81 11.23, 996.62 32 M996.62 32 C996.47 102.51, 997.8 171.19, 996.62 329.28 M996.62 329.28 C995.75 350.64, 987.51 359.46, 964.62 361.28 M964.62 361.28 C622.24 363.81, 280.54 364.13, 32 361.28 M32 361.28 C11.08 361.78, -1.8 350.69, 0 329.28 M0 329.28 C0.26 243.24, 2.07 154.94, 0 32 M0 32 C0.4 9.3, 9.31 -1.8, 32 0" stroke="#1e1e1e" stroke-width="1.5" fill="none" stroke-dasharray="8 9"></path></g><g stroke-opacity="0.5" fill-opacity="0.5" transform="translate(586.3865297059634 953.9307194059893) rotate(0 93.75 12)"><text x="0" y="0" font-family="Cascadia, Segoe UI Emoji" font-size="20px" fill="#1e1e1e" text-anchor="start" style="white-space: pre;" direction="ltr" dominant-baseline="text-before-edge">Distribution.sol</text></g><g stroke-linecap="round" transform="translate(717.2545040321385 1029.8086600449928) rotate(0 154.26753007540054 35.67791083219481)"><path d="M17.84 0 C123.57 -2.44, 233.05 0.38, 290.7 0 M17.84 0 C102.72 1.75, 186.01 1.63, 290.7 0 M290.7 0 C302.54 -1.15, 307.66 5.97, 308.54 17.84 M290.7 0 C304.37 -2.1, 310.07 6.94, 308.54 17.84 M308.54 17.84 C308.65 30.62, 308.82 45.99, 308.54 53.52 M308.54 17.84 C307.94 25.18, 307.83 33.76, 308.54 53.52 M308.54 53.52 C309.54 66.14, 302.99 69.99, 290.7 71.36 M308.54 53.52 C306.97 63.34, 300.43 71.68, 290.7 71.36 M290.7 71.36 C199.69 72.02, 106.45 72.05, 17.84 71.36 M290.7 71.36 C197.98 70.38, 105.96 70.88, 17.84 71.36 M17.84 71.36 C4.52 71.45, -0.2 66.09, 0 53.52 M17.84 71.36 C5.9 70.93, 1.38 63.84, 0 53.52 M0 53.52 C-1.04 41.52, 0.63 27.03, 0 17.84 M0 53.52 C-0.71 39.53, -0.22 27.55, 0 17.84 M0 17.84 C1.88 4.89, 5.23 -1.75, 17.84 0 M0 17.84 C0.06 8.03, 5.38 2.01, 17.84 0" stroke="#1e1e1e" stroke-width="2" fill="none"></path></g><g transform="translate(848.0845341075391 1053.4865708771877) rotate(0 23.4375 12)"><text x="23.4375" y="0" font-family="Cascadia, Segoe UI Emoji" font-size="20px" fill="#1e1e1e" text-anchor="middle" style="white-space: pre;" direction="ltr" dominant-baseline="text-before-edge">Drop</text></g><g stroke-linecap="round" transform="translate(717.3284073803026 1160.8420208407706) rotate(0 154.26753007540054 35.67791083219481)"><path d="M17.84 0 C124.96 -1.95, 227.88 -1.76, 290.7 0 M17.84 0 C74.72 2.54, 132.55 1.93, 290.7 0 M290.7 0 C302.35 1.32, 309.5 4.97, 308.54 17.84 M290.7 0 C303.97 2.21, 307.2 4.86, 308.54 17.84 M308.54 17.84 C309.52 32.74, 309.42 43.28, 308.54 53.52 M308.54 17.84 C309.52 27.68, 308.54 37.42, 308.54 53.52 M308.54 53.52 C309.41 66.75, 302.48 73.16, 290.7 71.36 M308.54 53.52 C310.49 67.6, 302.18 71.65, 290.7 71.36 M290.7 71.36 C201.18 69.96, 110.99 72.04, 17.84 71.36 M290.7 71.36 C211.88 71.4, 132.56 71.58, 17.84 71.36 M17.84 71.36 C6.53 71.86, -1.34 65.43, 0 53.52 M17.84 71.36 C5.2 70.25, 0.5 64.67, 0 53.52 M0 53.52 C1.02 44.71, -0.34 34.22, 0 17.84 M0 53.52 C0.63 42.24, -0.06 29.66, 0 17.84 M0 17.84 C-1.92 5.47, 4.34 -1.73, 17.84 0 M0 17.84 C-1.1 7.12, 7.86 0.37, 17.84 0" stroke="#1e1e1e" stroke-width="2" fill="none"></path></g><g transform="translate(842.2990624557032 1184.5199316729654) rotate(0 29.296875 12)"><text x="29.296875" y="0" font-family="Cascadia, Segoe UI Emoji" font-size="20px" fill="#1e1e1e" text-anchor="middle" style="white-space: pre;" direction="ltr" dominant-baseline="text-before-edge">Claim</text></g><g stroke-linecap="round" transform="translate(1151.5518117039228 997.1607640059065) rotate(0 26.886840123713114 21.703834798659955)"><path d="M0 0 C11.11 0.11, 20.55 0.65, 53.77 0 M0 0 C18.73 -0.75, 37.06 -0.17, 53.77 0 M53.77 0 C54.24 18.14, 52.65 30.93, 53.77 43.41 M53.77 0 C53.8 12.66, 53.58 27.07, 53.77 43.41 M53.77 43.41 C42.78 44.02, 28.74 43.43, 0 43.41 M53.77 43.41 C40.38 43.06, 29.22 42.94, 0 43.41 M0 43.41 C-1.15 28.63, 0.58 12.14, 0 0 M0 43.41 C0.57 32.77, -0.63 21.09, 0 0" stroke="#000000" stroke-width="2" fill="none"></path></g><g stroke-linecap="round" transform="translate(1150.2560603726597 1012.0619043154338) rotate(0 14.901140309527705 7.1266323219481365)"><path d="M3.56 0 C11.82 -0.66, 20.07 0.48, 26.24 0 M3.56 0 C7.98 -0.22, 12.97 0.39, 26.24 0 M26.24 0 C27.7 0.67, 30.24 2.06, 29.8 3.56 M26.24 0 C28.19 -1.06, 29.95 0.59, 29.8 3.56 M29.8 3.56 C29.82 5.83, 29.6 8.08, 29.8 10.69 M29.8 3.56 C29.9 5.22, 29.71 6.69, 29.8 10.69 M29.8 10.69 C28.9 12.12, 28.75 14.62, 26.24 14.25 M29.8 10.69 C29.82 13.5, 29.17 14.15, 26.24 14.25 M26.24 14.25 C19.52 13.87, 14.56 14.2, 3.56 14.25 M26.24 14.25 C18.36 14.12, 10.6 14.16, 3.56 14.25 M3.56 14.25 C1 14.85, -0.68 13.8, 0 10.69 M3.56 14.25 C0.26 15.05, -0.76 13.82, 0 10.69 M0 10.69 C0.05 8.32, -0.24 5.94, 0 3.56 M0 10.69 C-0.12 8.61, -0.18 6.66, 0 3.56 M0 3.56 C0.91 0.94, 2.06 -0.46, 3.56 0 M0 3.56 C-0.08 0.74, 2.16 -0.94, 3.56 0" stroke="#000000" stroke-width="2" fill="none"></path></g><g stroke-linecap="round" transform="translate(1152.4209750652144 1072.1569469961219) rotate(0 26.886840123713114 21.703834798659955)"><path d="M0 0 C9.86 -0.78, 22.01 -0.04, 53.77 0 M0 0 C19.17 -0.93, 38.94 -1.05, 53.77 0 M53.77 0 C54.92 10.42, 55.55 25.34, 53.77 43.41 M53.77 0 C53.33 11.3, 54.56 24.09, 53.77 43.41 M53.77 43.41 C41.9 41.82, 28.42 42.29, 0 43.41 M53.77 43.41 C40.41 42.66, 25.04 44.01, 0 43.41 M0 43.41 C0.6 32.43, -0.56 18.52, 0 0 M0 43.41 C-0.37 25.98, 0.72 9.95, 0 0" stroke="#000000" stroke-width="2" fill="none"></path></g><g stroke-linecap="round" transform="translate(1151.1252237339509 1087.0580873056492) rotate(0 14.901140309527705 7.1266323219481365)"><path d="M3.56 0 C7.96 -0.25, 13.19 0.7, 26.24 0 M3.56 0 C10.88 0.05, 18.45 -0.12, 26.24 0 M26.24 0 C28.38 -0.56, 30.43 0.54, 29.8 3.56 M26.24 0 C29.7 1.1, 29.58 1.41, 29.8 3.56 M29.8 3.56 C30.03 5.41, 29.55 7.16, 29.8 10.69 M29.8 3.56 C29.79 5.17, 29.75 6.91, 29.8 10.69 M29.8 10.69 C29.12 13.98, 28.23 14.07, 26.24 14.25 M29.8 10.69 C30.92 12.7, 29.64 13.46, 26.24 14.25 M26.24 14.25 C17.52 15.07, 10.66 14.13, 3.56 14.25 M26.24 14.25 C19.92 14.19, 13.85 14.56, 3.56 14.25 M3.56 14.25 C0.5 13.5, 0.16 12.45, 0 10.69 M3.56 14.25 C1.19 13.29, -0.55 11.96, 0 10.69 M0 10.69 C0.27 8.35, -0.23 6.37, 0 3.56 M0 10.69 C-0.13 7.93, 0.03 5.34, 0 3.56 M0 3.56 C-0.08 0.93, 2.02 0.86, 3.56 0 M0 3.56 C-0.06 0.41, 2.11 1.14, 3.56 0" stroke="#000000" stroke-width="2" fill="none"></path></g><g stroke-linecap="round" transform="translate(1152.1630670097825 1142.8370177868114) rotate(0 26.886840123713114 21.703834798659955)"><path d="M0 0 C16.71 0.96, 33.34 0.08, 53.77 0 M0 0 C11.63 1.08, 23.1 -0.37, 53.77 0 M53.77 0 C51.73 8.84, 55.58 18.9, 53.77 43.41 M53.77 0 C53.68 9.68, 53.12 19.46, 53.77 43.41 M53.77 43.41 C42.43 44.22, 28.38 43.58, 0 43.41 M53.77 43.41 C38.67 42.91, 21.97 44.49, 0 43.41 M0 43.41 C1.66 33.97, 0.94 22.91, 0 0 M0 43.41 C-0.78 32.58, 0.43 24.54, 0 0" stroke="#000000" stroke-width="2" fill="none"></path></g><g stroke-linecap="round" transform="translate(1150.867315678519 1157.7381580963388) rotate(0 14.901140309527705 7.1266323219481365)"><path d="M3.56 0 C11.03 0.3, 17.75 -0.94, 26.24 0 M3.56 0 C9.11 0.33, 13.58 -0.45, 26.24 0 M26.24 0 C28.32 -0.6, 28.85 0.84, 29.8 3.56 M26.24 0 C29.72 -0.1, 29.04 1.04, 29.8 3.56 M29.8 3.56 C29.59 5.88, 29.52 9.08, 29.8 10.69 M29.8 3.56 C29.68 5.9, 29.8 8.23, 29.8 10.69 M29.8 10.69 C30.22 13.65, 27.89 13.84, 26.24 14.25 M29.8 10.69 C30.78 12.49, 28.46 15.35, 26.24 14.25 M26.24 14.25 C18.21 13.58, 8.65 14.33, 3.56 14.25 M26.24 14.25 C22.01 14.25, 16.72 14.28, 3.56 14.25 M3.56 14.25 C0.86 14.97, 0.53 13.78, 0 10.69 M3.56 14.25 C1.29 14.2, -0.46 12.86, 0 10.69 M0 10.69 C-0.3 8.2, 0.26 6.24, 0 3.56 M0 10.69 C-0.07 8.54, -0.12 6.21, 0 3.56 M0 3.56 C0.71 0.99, 0.84 -0.11, 3.56 0 M0 3.56 C1.13 0.72, 0.3 -0.2, 3.56 0" stroke="#000000" stroke-width="2" fill="none"></path></g><g stroke-linecap="round" transform="translate(1151.7805058944364 1209.8138539225529) rotate(0 26.886840123713114 21.703834798659955)"><path d="M0 0 C14.55 -0.37, 30.54 -0.78, 53.77 0 M0 0 C13.3 -0.3, 28.12 0.25, 53.77 0 M53.77 0 C54 13.57, 53.41 31.72, 53.77 43.41 M53.77 0 C52.39 14.71, 52.41 28.67, 53.77 43.41 M53.77 43.41 C32.07 41.97, 12.73 44.19, 0 43.41 M53.77 43.41 C37.13 43.18, 21.38 42.63, 0 43.41 M0 43.41 C0.24 33.27, -1.52 19.98, 0 0 M0 43.41 C0.43 33.35, 0.47 24.71, 0 0" stroke="#000000" stroke-width="2" fill="none"></path></g><g stroke-linecap="round" transform="translate(1150.4847545631728 1224.7149942320802) rotate(0 14.901140309527705 7.1266323219481365)"><path d="M3.56 0 C9.82 0.35, 15.9 -0.37, 26.24 0 M3.56 0 C8.93 0.13, 14.83 0.37, 26.24 0 M26.24 0 C27.76 -0.87, 30.1 0.22, 29.8 3.56 M26.24 0 C28.62 0.41, 30.17 0.11, 29.8 3.56 M29.8 3.56 C29.43 5.85, 30.09 8.13, 29.8 10.69 M29.8 3.56 C29.86 6, 29.78 8.26, 29.8 10.69 M29.8 10.69 C29.08 12.32, 28.78 13.66, 26.24 14.25 M29.8 10.69 C29.35 12.51, 27.78 14.5, 26.24 14.25 M26.24 14.25 C18.74 13.28, 11.98 13.3, 3.56 14.25 M26.24 14.25 C19.19 14.21, 12.59 14, 3.56 14.25 M3.56 14.25 C0.33 14.58, 0.6 13.55, 0 10.69 M3.56 14.25 C1.21 14.8, -0.68 13.52, 0 10.69 M0 10.69 C-0.22 9.1, -0.09 7.71, 0 3.56 M0 10.69 C-0.09 8.86, 0.13 6.94, 0 3.56 M0 3.56 C0.25 1.93, 0.38 -0.52, 3.56 0 M0 3.56 C-0.19 2.18, 1.45 0.27, 3.56 0" stroke="#000000" stroke-width="2" fill="none"></path></g><g stroke-linecap="round" transform="translate(1233.928494616553 995.625162086355) rotate(0 26.886840123713114 21.703834798659955)"><path d="M0 0 C21.06 -1.14, 40.53 0.82, 53.77 0 M0 0 C14.93 0.89, 30.11 1.11, 53.77 0 M53.77 0 C54.27 15.78, 52.97 33.34, 53.77 43.41 M53.77 0 C53.25 10.97, 54.43 22.36, 53.77 43.41 M53.77 43.41 C39.99 42.43, 27.94 44.48, 0 43.41 M53.77 43.41 C40.77 44.38, 26.55 43.41, 0 43.41 M0 43.41 C0.67 25.71, 1.38 11.53, 0 0 M0 43.41 C0.47 28.15, -0.94 12.31, 0 0" stroke="#000000" stroke-width="2" fill="none"></path></g><g stroke-linecap="round" transform="translate(1232.63274328529 1010.5263023958823) rotate(0 14.901140309527705 7.1266323219481365)"><path d="M3.56 0 C9.33 0.17, 16.8 -0.19, 26.24 0 M3.56 0 C11.66 -0.32, 19.55 0.55, 26.24 0 M26.24 0 C28.86 0.04, 30 0.44, 29.8 3.56 M26.24 0 C28.09 -0.69, 29.28 1.97, 29.8 3.56 M29.8 3.56 C29.9 5.74, 29.59 7.82, 29.8 10.69 M29.8 3.56 C29.89 5.25, 29.71 6.58, 29.8 10.69 M29.8 10.69 C30.48 13.58, 29.22 14.06, 26.24 14.25 M29.8 10.69 C29.39 13.78, 28.5 13.96, 26.24 14.25 M26.24 14.25 C18.51 14.93, 11.6 14, 3.56 14.25 M26.24 14.25 C18.07 14.31, 9.98 14.55, 3.56 14.25 M3.56 14.25 C2.07 15.22, -0.16 13.05, 0 10.69 M3.56 14.25 C0.07 14.47, 0.23 13.83, 0 10.69 M0 10.69 C0.13 9.37, 0.23 7.51, 0 3.56 M0 10.69 C-0.09 8.99, -0.16 7.61, 0 3.56 M0 3.56 C-0.91 1.23, 0.84 -0.25, 3.56 0 M0 3.56 C0.65 0.36, 0.06 0.86, 3.56 0" stroke="#000000" stroke-width="2" fill="none"></path></g><g stroke-linecap="round" transform="translate(1234.7976579778447 1070.6213450765704) rotate(0 26.886840123713114 21.703834798659955)"><path d="M0 0 C13.43 0.89, 25.7 1.25, 53.77 0 M0 0 C12.95 0.52, 28.38 -0.1, 53.77 0 M53.77 0 C52.95 12, 52.96 27.76, 53.77 43.41 M53.77 0 C53.78 12.95, 52.92 25.66, 53.77 43.41 M53.77 43.41 C43.13 44.78, 29.42 42.33, 0 43.41 M53.77 43.41 C33.81 43.37, 14.85 43.63, 0 43.41 M0 43.41 C1.2 31.06, 1.07 20.37, 0 0 M0 43.41 C-1.04 31.96, 0.01 20.69, 0 0" stroke="#000000" stroke-width="2" fill="none"></path></g><g stroke-linecap="round" transform="translate(1233.5019066465811 1085.5224853860977) rotate(0 14.901140309527705 7.1266323219481365)"><path d="M3.56 0 C11.77 -0.16, 19.91 -0.48, 26.24 0 M3.56 0 C9.67 0.57, 15.03 0.11, 26.24 0 M26.24 0 C28.81 -0.74, 29.35 0.59, 29.8 3.56 M26.24 0 C28.1 0.78, 29.72 0.25, 29.8 3.56 M29.8 3.56 C29.64 5.72, 29.52 7.65, 29.8 10.69 M29.8 3.56 C29.73 5.43, 29.94 7.55, 29.8 10.69 M29.8 10.69 C30.41 12.87, 28.25 14.88, 26.24 14.25 M29.8 10.69 C29.68 12.77, 28.98 13.12, 26.24 14.25 M26.24 14.25 C18.32 14, 10.25 14.7, 3.56 14.25 M26.24 14.25 C21.42 14.67, 16.54 14.77, 3.56 14.25 M3.56 14.25 C1.03 14.24, -0.98 13.25, 0 10.69 M3.56 14.25 C1.42 15.02, -0.81 12.74, 0 10.69 M0 10.69 C0.2 9.07, -0.27 7.41, 0 3.56 M0 10.69 C-0.13 8.61, -0.15 6.21, 0 3.56 M0 3.56 C-0.35 0.94, 1.75 -0.72, 3.56 0 M0 3.56 C-1.12 2.05, 2.02 0.74, 3.56 0" stroke="#000000" stroke-width="2" fill="none"></path></g><g stroke-linecap="round" transform="translate(1234.5397499224127 1141.30141586726) rotate(0 26.886840123713114 21.703834798659955)"><path d="M0 0 C11.97 0.72, 23.56 -1.13, 53.77 0 M0 0 C20.59 -0.22, 39.26 -0.27, 53.77 0 M53.77 0 C52.67 11.16, 53.43 17.96, 53.77 43.41 M53.77 0 C53.43 12.86, 53.1 25.06, 53.77 43.41 M53.77 43.41 C38.11 42.88, 25.74 44.84, 0 43.41 M53.77 43.41 C35.01 43.11, 14.74 43.53, 0 43.41 M0 43.41 C0.91 35.45, -0.94 27.19, 0 0 M0 43.41 C0.62 29.25, 1.1 14.95, 0 0" stroke="#000000" stroke-width="2" fill="none"></path></g><g stroke-linecap="round" transform="translate(1233.2439985911492 1156.2025561767873) rotate(0 14.901140309527705 7.1266323219481365)"><path d="M3.56 0 C11.31 -0.44, 17.69 0.66, 26.24 0 M3.56 0 C8.77 -0.09, 13.84 -0.48, 26.24 0 M26.24 0 C28.16 -0.6, 29.35 1.87, 29.8 3.56 M26.24 0 C28.53 -0.94, 29.69 1.6, 29.8 3.56 M29.8 3.56 C29.49 5.81, 29.69 8.37, 29.8 10.69 M29.8 3.56 C29.91 6.33, 29.89 8.88, 29.8 10.69 M29.8 10.69 C29.44 13.69, 28.51 14, 26.24 14.25 M29.8 10.69 C30.16 11.93, 29.38 14.01, 26.24 14.25 M26.24 14.25 C18.71 14.6, 9.14 14.39, 3.56 14.25 M26.24 14.25 C19.22 14.82, 11.25 14.33, 3.56 14.25 M3.56 14.25 C0.21 14.44, 0.2 13.73, 0 10.69 M3.56 14.25 C0.38 13.93, -0.67 13.44, 0 10.69 M0 10.69 C-0.28 8.08, 0.03 5, 0 3.56 M0 10.69 C-0.13 8.86, -0.03 6.98, 0 3.56 M0 3.56 C0.56 0.47, 0.21 0.75, 3.56 0 M0 3.56 C0.84 1.93, 1.07 0.32, 3.56 0" stroke="#000000" stroke-width="2" fill="none"></path></g><g stroke-linecap="round" transform="translate(1234.1571888070666 1208.2782520030014) rotate(0 26.886840123713114 21.703834798659955)"><path d="M0 0 C16.58 -1.23, 36.26 -1.74, 53.77 0 M0 0 C20.83 0.07, 40.83 -0.58, 53.77 0 M53.77 0 C53.43 8.8, 53.39 21.59, 53.77 43.41 M53.77 0 C52.73 13.9, 53.29 28.66, 53.77 43.41 M53.77 43.41 C34.93 44.19, 14.59 42.77, 0 43.41 M53.77 43.41 C39.33 43.67, 24.41 44.02, 0 43.41 M0 43.41 C-0.91 32.6, 0.5 17.69, 0 0 M0 43.41 C0.64 30.53, 0.84 15.72, 0 0" stroke="#000000" stroke-width="2" fill="none"></path></g><g stroke-linecap="round" transform="translate(1232.861437475803 1223.1793923125288) rotate(0 14.901140309527705 7.1266323219481365)"><path d="M3.56 0 C9.57 0.7, 15.82 0.92, 26.24 0 M3.56 0 C12.68 -0.38, 21.38 -0.3, 26.24 0 M26.24 0 C28.16 0.68, 29.73 0.37, 29.8 3.56 M26.24 0 C28.51 0.42, 30.08 0.61, 29.8 3.56 M29.8 3.56 C29.68 6.06, 30.04 8.02, 29.8 10.69 M29.8 3.56 C29.93 5.33, 29.76 7.28, 29.8 10.69 M29.8 10.69 C29.7 12.81, 28.93 13.27, 26.24 14.25 M29.8 10.69 C30.57 12.82, 29.31 14.71, 26.24 14.25 M26.24 14.25 C19.41 14.47, 14.39 14.81, 3.56 14.25 M26.24 14.25 C17.62 14.36, 8.67 14.46, 3.56 14.25 M3.56 14.25 C1.39 14.92, -0.7 12.79, 0 10.69 M3.56 14.25 C0.52 14.63, 1.02 13.76, 0 10.69 M0 10.69 C0.08 8.2, -0.13 5.71, 0 3.56 M0 10.69 C-0.03 7.85, 0.13 4.98, 0 3.56 M0 3.56 C-0.98 1.94, 1.92 0.64, 3.56 0 M0 3.56 C-0.12 1.51, 1.55 -0.85, 3.56 0" stroke="#000000" stroke-width="2" fill="none"></path></g><g stroke-linecap="round" transform="translate(1311.1684326852228 994.1778560842426) rotate(0 26.886840123713114 21.703834798659955)"><path d="M0 0 C14.99 -1.03, 34.95 -0.03, 53.77 0 M0 0 C19.24 0.64, 37.35 -0.56, 53.77 0 M53.77 0 C53.58 10.67, 54.89 23.3, 53.77 43.41 M53.77 0 C53.72 15.73, 53.54 33.18, 53.77 43.41 M53.77 43.41 C41.09 43.4, 28.85 44.1, 0 43.41 M53.77 43.41 C38.82 43.64, 22.78 43.41, 0 43.41 M0 43.41 C-0.99 25.2, -0.93 7.64, 0 0 M0 43.41 C-0.03 31.19, -0.63 19.36, 0 0" stroke="#000000" stroke-width="2" fill="none"></path></g><g stroke-linecap="round" transform="translate(1309.8726813539593 1009.07899639377) rotate(0 14.901140309527705 7.1266323219481365)"><path d="M3.56 0 C9.25 1.07, 15.78 0.52, 26.24 0 M3.56 0 C10.42 0.12, 16.46 -0.29, 26.24 0 M26.24 0 C28.81 0.08, 29.66 0.89, 29.8 3.56 M26.24 0 C29.21 0.45, 30.67 0.26, 29.8 3.56 M29.8 3.56 C29.85 6.54, 29.54 9.35, 29.8 10.69 M29.8 3.56 C29.72 5.45, 29.78 7.23, 29.8 10.69 M29.8 10.69 C30.22 14.03, 28.63 15.09, 26.24 14.25 M29.8 10.69 C29.55 14.21, 28.82 15.31, 26.24 14.25 M26.24 14.25 C19.94 14.01, 14.37 13.27, 3.56 14.25 M26.24 14.25 C19.99 14.57, 13.27 14.26, 3.56 14.25 M3.56 14.25 C1.86 13.97, -0.24 12.56, 0 10.69 M3.56 14.25 C1.61 13.53, -0.55 13.11, 0 10.69 M0 10.69 C-0.06 9.12, -0.16 7.38, 0 3.56 M0 10.69 C-0.1 8.06, 0.11 5.61, 0 3.56 M0 3.56 C-0.29 1.57, 1.38 0.26, 3.56 0 M0 3.56 C0.69 1.5, 1.5 0.09, 3.56 0" stroke="#000000" stroke-width="2" fill="none"></path></g><g stroke-linecap="round" transform="translate(1312.037596046514 1069.174039074458) rotate(0 26.886840123713114 21.703834798659955)"><path d="M0 0 C21.31 0.48, 39.54 0.05, 53.77 0 M0 0 C14.4 -1, 27.56 -0.03, 53.77 0 M53.77 0 C54.75 14.15, 55.22 25.12, 53.77 43.41 M53.77 0 C54.02 17.46, 53.14 34.44, 53.77 43.41 M53.77 43.41 C39.32 44.42, 26.48 44.2, 0 43.41 M53.77 43.41 C36.25 43.2, 18.06 43.59, 0 43.41 M0 43.41 C-0.66 25.33, -0.19 8.71, 0 0 M0 43.41 C-0.7 34.74, 0.88 25.12, 0 0" stroke="#000000" stroke-width="2" fill="none"></path></g><g stroke-linecap="round" transform="translate(1310.7418447152509 1084.0751793839854) rotate(0 14.901140309527705 7.1266323219481365)"><path d="M3.56 0 C8.81 0.32, 13.7 -0.51, 26.24 0 M3.56 0 C11.73 -0.25, 20.77 -0.01, 26.24 0 M26.24 0 C28.47 -0.3, 30.32 1.58, 29.8 3.56 M26.24 0 C29.48 -0.93, 30.82 1.53, 29.8 3.56 M29.8 3.56 C29.54 5.55, 29.64 6.92, 29.8 10.69 M29.8 3.56 C29.78 5.85, 29.86 8.19, 29.8 10.69 M29.8 10.69 C29.81 13.9, 28.4 15.25, 26.24 14.25 M29.8 10.69 C30.01 14.12, 28.09 13.76, 26.24 14.25 M26.24 14.25 C20.07 13.3, 14.39 14.18, 3.56 14.25 M26.24 14.25 C21.02 14.44, 16.51 14.2, 3.56 14.25 M3.56 14.25 C0.95 13.74, 0.37 12.44, 0 10.69 M3.56 14.25 C0.64 14.3, -0.79 11.95, 0 10.69 M0 10.69 C-0.18 9, 0.17 7.18, 0 3.56 M0 10.69 C0.12 8.46, -0.03 6.61, 0 3.56 M0 3.56 C0.19 1.45, 1.79 0.27, 3.56 0 M0 3.56 C0.31 1.28, 0.92 0.63, 3.56 0" stroke="#000000" stroke-width="2" fill="none"></path></g><g stroke-linecap="round" transform="translate(1311.779687991082 1139.8541098651476) rotate(0 26.886840123713114 21.703834798659955)"><path d="M0 0 C15.09 -0.22, 27.65 1.47, 53.77 0 M0 0 C18 0.62, 36.89 0.27, 53.77 0 M53.77 0 C55.51 10.12, 55.77 24.08, 53.77 43.41 M53.77 0 C53.06 11.26, 53.35 20.82, 53.77 43.41 M53.77 43.41 C36.89 44.38, 20.99 45.58, 0 43.41 M53.77 43.41 C38.57 43.47, 22.29 42.83, 0 43.41 M0 43.41 C-0.21 31.56, -1.69 20.7, 0 0 M0 43.41 C1.14 30.23, 0.53 18.46, 0 0" stroke="#000000" stroke-width="2" fill="none"></path></g><g stroke-linecap="round" transform="translate(1310.483936659819 1154.755250174675) rotate(0 14.901140309527705 7.1266323219481365)"><path d="M3.56 0 C12.54 -0.45, 22.42 0.37, 26.24 0 M3.56 0 C11.4 0.09, 18.97 -0.1, 26.24 0 M26.24 0 C29.13 0.39, 30.56 0.38, 29.8 3.56 M26.24 0 C29.63 0.35, 29.15 1.32, 29.8 3.56 M29.8 3.56 C29.61 6.01, 29.82 8.53, 29.8 10.69 M29.8 3.56 C29.87 6.21, 29.8 8.66, 29.8 10.69 M29.8 10.69 C29.59 14.06, 28.8 15.17, 26.24 14.25 M29.8 10.69 C29.28 12.58, 28.12 13.64, 26.24 14.25 M26.24 14.25 C19.7 14.1, 12.74 14.44, 3.56 14.25 M26.24 14.25 C17.96 14.13, 8.88 14.02, 3.56 14.25 M3.56 14.25 C1.55 13.62, -0.48 13.11, 0 10.69 M3.56 14.25 C0.4 13.14, -0.75 12.76, 0 10.69 M0 10.69 C0.18 8.24, -0.01 5.86, 0 3.56 M0 10.69 C-0.07 9.3, 0.02 7.82, 0 3.56 M0 3.56 C0.6 1.46, 1.46 0.08, 3.56 0 M0 3.56 C-0.27 1.82, 1.54 -0.29, 3.56 0" stroke="#000000" stroke-width="2" fill="none"></path></g><g stroke-linecap="round" transform="translate(1311.397126875736 1206.830946000889) rotate(0 26.886840123713114 21.703834798659955)"><path d="M0 0 C16.11 1.58, 34.66 0.87, 53.77 0 M0 0 C12.06 -0.25, 23.66 0.41, 53.77 0 M53.77 0 C55.87 15.33, 52.97 29.68, 53.77 43.41 M53.77 0 C52.97 15.27, 53.57 30.76, 53.77 43.41 M53.77 43.41 C35.93 45.52, 16.46 45.27, 0 43.41 M53.77 43.41 C39.72 43.05, 23.4 43.08, 0 43.41 M0 43.41 C-1.79 32.34, -0.01 20.43, 0 0 M0 43.41 C-0.16 29.77, -0.63 14.56, 0 0" stroke="#000000" stroke-width="2" fill="none"></path></g><g stroke-linecap="round" transform="translate(1310.1013755444728 1221.7320863104164) rotate(0 14.901140309527705 7.1266323219481365)"><path d="M3.56 0 C12.12 0.47, 19.55 -0.73, 26.24 0 M3.56 0 C9.37 -0.16, 15.58 0.19, 26.24 0 M26.24 0 C29.37 -0.81, 30.69 1.49, 29.8 3.56 M26.24 0 C27.97 0.13, 30.48 0.31, 29.8 3.56 M29.8 3.56 C29.83 6.04, 29.95 8.81, 29.8 10.69 M29.8 3.56 C29.82 6.11, 29.78 8.53, 29.8 10.69 M29.8 10.69 C29.98 13.98, 28.16 13.83, 26.24 14.25 M29.8 10.69 C29.31 12.45, 28.39 13.87, 26.24 14.25 M26.24 14.25 C20.78 14.54, 17.68 13.88, 3.56 14.25 M26.24 14.25 C18.89 13.97, 11.97 13.91, 3.56 14.25 M3.56 14.25 C0.71 14.3, -0.69 12.1, 0 10.69 M3.56 14.25 C0.44 13.95, 0.25 12.45, 0 10.69 M0 10.69 C-0.05 8.34, -0.36 6.66, 0 3.56 M0 10.69 C0.04 9.24, 0.12 7.74, 0 3.56 M0 3.56 C0.27 1.27, 0.95 0.55, 3.56 0 M0 3.56 C0.35 0.9, 1.48 0.01, 3.56 0" stroke="#000000" stroke-width="2" fill="none"></path></g><g stroke-linecap="round"><g transform="translate(1038.5565348171988 1189.2553675760532) rotate(0 49.249046933279544 -78.56508236871105)"><path d="M0 0 C16.42 -26.19, 82.08 -130.94, 98.5 -157.13 M0 0 C16.42 -26.19, 82.08 -130.94, 98.5 -157.13" stroke="#1e1e1e" stroke-width="1" fill="none"></path></g><g transform="translate(1038.5565348171988 1189.2553675760532) rotate(0 49.249046933279544 -78.56508236871105)"><path d="M93.27 -132.68 C95.17 -141.57, 97.07 -150.45, 98.5 -157.13 M93.27 -132.68 C94.73 -139.52, 96.19 -146.35, 98.5 -157.13" stroke="#1e1e1e" stroke-width="1" fill="none"></path></g><g transform="translate(1038.5565348171988 1189.2553675760532) rotate(0 49.249046933279544 -78.56508236871105)"><path d="M78.78 -141.77 C85.94 -147.35, 93.11 -152.93, 98.5 -157.13 M78.78 -141.77 C84.29 -146.06, 89.8 -150.36, 98.5 -157.13" stroke="#1e1e1e" stroke-width="1" fill="none"></path></g></g><mask></mask><g stroke-linecap="round"><g transform="translate(1037.8571471745709 1189.6951086591394) rotate(0 48.96268315876307 -47.8593932627673)"><path d="M0 0 C16.32 -15.95, 81.6 -79.77, 97.93 -95.72 M0 0 C16.32 -15.95, 81.6 -79.77, 97.93 -95.72" stroke="#1e1e1e" stroke-width="1" fill="none"></path></g><g transform="translate(1037.8571471745709 1189.6951086591394) rotate(0 48.96268315876307 -47.8593932627673)"><path d="M87.1 -73.18 C91.06 -81.42, 95.01 -89.65, 97.93 -95.72 M87.1 -73.18 C91.19 -81.69, 95.28 -90.2, 97.93 -95.72" stroke="#1e1e1e" stroke-width="1" fill="none"></path></g><g transform="translate(1037.8571471745709 1189.6951086591394) rotate(0 48.96268315876307 -47.8593932627673)"><path d="M75.15 -85.41 C83.47 -89.18, 91.79 -92.94, 97.93 -95.72 M75.15 -85.41 C83.75 -89.3, 92.35 -93.2, 97.93 -95.72" stroke="#1e1e1e" stroke-width="1" fill="none"></path></g></g><mask></mask><g stroke-linecap="round"><g transform="translate(1037.4226472842606 1189.733473615312) rotate(0 50.72340763004979 -10.528860868807442)"><path d="M0 0 C16.91 -3.51, 84.54 -17.55, 101.45 -21.06 M0 0 C16.91 -3.51, 84.54 -17.55, 101.45 -21.06" stroke="#1e1e1e" stroke-width="1" fill="none"></path></g><g transform="translate(1037.4226472842606 1189.733473615312) rotate(0 50.72340763004979 -10.528860868807442)"><path d="M80.18 -7.91 C87.78 -12.61, 95.37 -17.3, 101.45 -21.06 M80.18 -7.91 C87.26 -12.29, 94.34 -16.66, 101.45 -21.06" stroke="#1e1e1e" stroke-width="1" fill="none"></path></g><g transform="translate(1037.4226472842606 1189.733473615312) rotate(0 50.72340763004979 -10.528860868807442)"><path d="M76.71 -24.66 C85.54 -23.37, 94.38 -22.09, 101.45 -21.06 M76.71 -24.66 C84.94 -23.46, 93.17 -22.26, 101.45 -21.06" stroke="#1e1e1e" stroke-width="1" fill="none"></path></g></g><mask></mask><g stroke-linecap="round"><g transform="translate(1038.2970045230481 1191.0450859270854) rotate(0 50.93116272990676 17.364828421312723)"><path d="M0 0 C16.98 5.79, 84.89 28.94, 101.86 34.73 M0 0 C16.98 5.79, 84.89 28.94, 101.86 34.73" stroke="#1e1e1e" stroke-width="1" fill="none"></path></g><g transform="translate(1038.2970045230481 1191.0450859270854) rotate(0 50.93116272990676 17.364828421312723)"><path d="M76.87 35.24 C84.12 35.09, 91.37 34.94, 101.86 34.73 M76.87 35.24 C83.19 35.11, 89.51 34.98, 101.86 34.73" stroke="#1e1e1e" stroke-width="1" fill="none"></path></g><g transform="translate(1038.2970045230481 1191.0450859270854) rotate(0 50.93116272990676 17.364828421312723)"><path d="M82.39 19.06 C88.03 23.6, 93.68 28.15, 101.86 34.73 M82.39 19.06 C87.31 23.02, 92.24 26.99, 101.86 34.73" stroke="#1e1e1e" stroke-width="1" fill="none"></path></g></g><mask></mask><g stroke-opacity="0.5" fill-opacity="0.5" transform="translate(724.5071029339401 1037.422047746904) rotate(0 18.75 9.599999999999909)"><text x="0" y="0" font-family="Cascadia, Segoe UI Emoji" font-size="16px" fill="#1e1e1e" text-anchor="start" style="white-space: pre;" direction="ltr" dominant-baseline="text-before-edge">func</text></g><g stroke-opacity="0.5" fill-opacity="0.5" transform="translate(723.563356415535 1168.1917486930615) rotate(0 18.75 9.599999999999909)"><text x="0" y="0" font-family="Cascadia, Segoe UI Emoji" font-size="16px" fill="#1e1e1e" text-anchor="start" style="white-space: pre;" direction="ltr" dominant-baseline="text-before-edge">func</text></g><g stroke-linecap="round"><g transform="translate(876.6968017100415 1108.5344176522913) rotate(0 0.27535852045878073 22.241805703805994)"><path d="M-0.32 0.25 C-0.27 7.67, 0.37 37.53, 0.52 44.84 M0.52 -0.09 C0.48 7.14, 0.12 36.63, 0.07 44.06" stroke="#1e1e1e" stroke-width="2" fill="none"></path></g><g transform="translate(876.6968017100415 1108.5344176522913) rotate(0 0.27535852045878073 22.241805703805994)"><path d="M-7.34 23.08 C-4.3 30.15, -1.6 37.34, 0.07 44.06 M-7.34 23.08 C-5.3 28.33, -4.42 32.8, 0.07 44.06" stroke="#1e1e1e" stroke-width="2" fill="none"></path></g><g transform="translate(876.6968017100415 1108.5344176522913) rotate(0 0.27535852045878073 22.241805703805994)"><path d="M7.88 23.23 C5.76 30.2, 3.31 37.34, 0.07 44.06 M7.88 23.23 C6.44 28.49, 3.84 32.94, 0.07 44.06" stroke="#1e1e1e" stroke-width="2" fill="none"></path></g></g><mask></mask><g stroke-opacity="0.2" fill-opacity="0.2" stroke-linecap="round" transform="translate(559.36905308225 10) rotate(0 498.31223543739037 180.64158414314193)"><path d="M32 0 C339.1 -7.48, 645.07 -7.51, 964.62 0 C987.61 -3.22, 994.01 12.13, 996.62 32 C996.01 142.93, 996.33 258.02, 996.62 329.28 C995.29 347.64, 987.13 362.02, 964.62 361.28 C669.45 365.19, 373.44 365.51, 32 361.28 C10.72 361.52, -2.22 352.27, 0 329.28 C-5.19 210.04, -2.61 92.18, 0 32 C2.95 12.72, 7.82 1.57, 32 0" stroke="none" stroke-width="0" fill="#a5d8ff"></path><path d="M32 0 C350.02 2.3, 667.85 2.4, 964.62 0 M964.62 0 C984.95 0.92, 995.94 10.71, 996.62 32 M996.62 32 C996.94 133.61, 995.71 231.85, 996.62 329.28 M996.62 329.28 C995.5 351.5, 985.49 360.91, 964.62 361.28 M964.62 361.28 C638.82 361.79, 314.01 362.1, 32 361.28 M32 361.28 C11.23 361.41, -1.01 349.81, 0 329.28 M0 329.28 C1.96 263.82, 1.89 201.72, 0 32 M0 32 C-0.34 8.95, 8.67 -0.75, 32 0" stroke="#1e1e1e" stroke-width="1.5" fill="none" stroke-dasharray="8 9"></path></g><g stroke-linecap="round" transform="translate(1038.4113046239722 34.335831333726674) rotate(0 11.107805447522594 11.107805447522537)"><path d="M9.53 0.33 C11.73 -0.04, 14.8 0.72, 16.76 1.93 C18.72 3.14, 20.47 5.42, 21.3 7.6 C22.12 9.78, 22.62 12.76, 21.7 15.01 C20.78 17.26, 17.97 19.93, 15.77 21.09 C13.56 22.26, 10.7 22.51, 8.46 21.99 C6.21 21.46, 3.75 19.81, 2.3 17.97 C0.84 16.13, -0.43 13.4, -0.27 10.93 C-0.12 8.47, 1.51 5, 3.24 3.2 C4.96 1.41, 8.88 0.68, 10.08 0.17 C11.27 -0.34, 10.41 -0.05, 10.39 0.14 M9.28 -0.05 C11.4 -0.51, 14.43 0.39, 16.41 1.69 C18.39 3, 20.32 5.54, 21.15 7.8 C21.98 10.05, 22.26 12.99, 21.4 15.2 C20.54 17.41, 18.11 20.03, 16 21.05 C13.88 22.07, 10.87 21.94, 8.72 21.34 C6.56 20.75, 4.48 19.28, 3.06 17.47 C1.63 15.65, 0.29 12.71, 0.16 10.44 C0.03 8.16, 0.84 5.45, 2.28 3.81 C3.73 2.17, 7.56 1.28, 8.85 0.6 C10.15 -0.09, 9.87 -0.44, 10.05 -0.31" stroke="#1e1e1e" stroke-width="2" fill="none"></path></g><g stroke-linecap="round" transform="translate(1038.4113046239722 68.35348551676452) rotate(0 11.107805447522594 11.107805447522537)"><path d="M9.66 0.25 C11.85 -0.19, 14.86 0.51, 16.94 1.75 C19.01 3, 21.48 5.39, 22.12 7.73 C22.76 10.06, 21.84 13.55, 20.77 15.78 C19.7 18.02, 17.77 20.1, 15.71 21.14 C13.64 22.17, 10.71 22.51, 8.39 21.98 C6.08 21.44, 3.16 19.94, 1.82 17.93 C0.48 15.91, 0.09 12.31, 0.35 9.9 C0.6 7.5, 1.64 5.14, 3.35 3.47 C5.05 1.8, 9.36 0.42, 10.56 -0.1 C11.76 -0.61, 10.63 0.17, 10.55 0.38 M10.56 0.02 C12.77 -0.07, 15.83 1.23, 17.74 2.75 C19.66 4.27, 21.6 6.8, 22.04 9.15 C22.48 11.49, 21.59 14.86, 20.38 16.82 C19.17 18.78, 16.86 20.22, 14.79 20.92 C12.73 21.62, 10.18 21.81, 7.98 21.05 C5.79 20.28, 3.03 18.31, 1.64 16.35 C0.24 14.39, -0.66 11.49, -0.39 9.28 C-0.11 7.07, 1.29 4.73, 3.29 3.07 C5.29 1.42, 10.26 -0.19, 11.6 -0.64 C12.95 -1.1, 11.39 0.09, 11.36 0.35" stroke="#1e1e1e" stroke-width="2" fill="none"></path></g><g stroke-linecap="round" transform="translate(1038.4113046239722 100.28842617839132) rotate(0 11.107805447522594 11.107805447522537)"><path d="M12.01 -0.09 C14.38 -0.05, 17.91 1.37, 19.53 3.15 C21.15 4.94, 21.69 8.18, 21.73 10.62 C21.77 13.06, 21.11 15.89, 19.76 17.79 C18.41 19.69, 15.97 21.43, 13.65 22.02 C11.33 22.61, 7.89 22.49, 5.82 21.34 C3.75 20.18, 2.07 17.31, 1.22 15.09 C0.36 12.87, 0 10.23, 0.68 8 C1.36 5.77, 3.31 2.98, 5.31 1.69 C7.32 0.4, 11.48 0.47, 12.72 0.27 C13.96 0.06, 12.77 0.31, 12.75 0.44 M9.98 0.15 C12.32 -0.12, 15.82 0.74, 17.76 2.17 C19.69 3.6, 21.06 6.5, 21.58 8.72 C22.11 10.94, 21.82 13.48, 20.92 15.49 C20.02 17.51, 18.31 19.84, 16.17 20.83 C14.02 21.82, 10.53 22.03, 8.04 21.44 C5.56 20.85, 2.69 19.16, 1.25 17.3 C-0.19 15.44, -1.07 12.76, -0.61 10.27 C-0.16 7.78, 2.09 4.05, 3.99 2.36 C5.88 0.67, 9.6 0.53, 10.73 0.15 C11.87 -0.23, 10.77 -0.03, 10.81 0.08" stroke="#1e1e1e" stroke-width="2" fill="none"></path></g><g stroke-linecap="round" transform="translate(989.2939774107087 49.60906382406938) rotate(0 11.107805447522594 11.107805447522537)"><path d="M12.49 -0.3 C14.74 -0.18, 16.97 1.68, 18.55 3.44 C20.12 5.2, 21.67 7.89, 21.93 10.25 C22.2 12.62, 21.55 15.66, 20.16 17.65 C18.77 19.63, 15.87 21.65, 13.62 22.17 C11.37 22.68, 8.73 21.8, 6.66 20.74 C4.59 19.68, 2.21 17.95, 1.22 15.83 C0.22 13.71, 0.1 10.31, 0.69 8.03 C1.28 5.74, 2.87 3.42, 4.78 2.11 C6.7 0.79, 10.86 0.45, 12.18 0.13 C13.51 -0.2, 12.73 0.06, 12.74 0.17 M11.15 -0.05 C13.45 -0.18, 16.15 1.34, 17.95 2.78 C19.75 4.22, 21.39 6.36, 21.96 8.6 C22.53 10.84, 22.55 14.11, 21.39 16.22 C20.23 18.33, 17.46 20.36, 15.01 21.27 C12.56 22.17, 9.07 22.34, 6.7 21.65 C4.32 20.95, 1.77 19.29, 0.77 17.1 C-0.24 14.91, 0.07 10.88, 0.65 8.48 C1.23 6.08, 2.45 4.13, 4.25 2.69 C6.05 1.25, 10.25 0.31, 11.47 -0.16 C12.69 -0.63, 11.6 -0.29, 11.57 -0.13" stroke="#1e1e1e" stroke-width="2" fill="none"></path></g><g stroke-linecap="round" transform="translate(989.2939774107087 83.27959908687285) rotate(0 11.107805447522594 11.107805447522537)"><path d="M9.73 0.17 C11.88 -0.09, 15.26 0.71, 17.28 2.08 C19.31 3.45, 21.26 6.05, 21.85 8.39 C22.45 10.74, 21.83 14.1, 20.86 16.17 C19.9 18.24, 18.14 19.84, 16.06 20.8 C13.98 21.76, 10.68 22.5, 8.38 21.92 C6.08 21.34, 3.66 19.25, 2.26 17.3 C0.87 15.35, -0.1 12.56, 0.03 10.22 C0.15 7.88, 1.28 4.98, 3.02 3.25 C4.75 1.52, 9.19 0.41, 10.46 -0.15 C11.72 -0.72, 10.59 -0.31, 10.6 -0.15 M11.27 0.15 C13.52 0.02, 16.61 0.79, 18.53 2.3 C20.45 3.8, 22.47 6.77, 22.81 9.18 C23.16 11.6, 22.11 14.69, 20.62 16.79 C19.13 18.9, 16.28 20.98, 13.87 21.83 C11.46 22.67, 8.17 22.89, 6.15 21.85 C4.12 20.81, 2.66 17.75, 1.72 15.58 C0.78 13.4, 0.01 11.06, 0.5 8.82 C0.99 6.57, 2.75 3.65, 4.66 2.12 C6.58 0.59, 10.84 0.03, 12.01 -0.34 C13.19 -0.71, 11.8 -0.42, 11.74 -0.1" stroke="#1e1e1e" stroke-width="2" fill="none"></path></g><g stroke-linecap="round" transform="translate(1083.3632047944145 68.35348551676452) rotate(0 11.107805447522594 11.107805447522537)"><path d="M8.94 0.2 C11.22 -0.34, 14.61 0.35, 16.67 1.59 C18.72 2.83, 20.4 5.47, 21.26 7.63 C22.13 9.78, 22.59 12.31, 21.86 14.51 C21.13 16.71, 18.93 19.6, 16.86 20.83 C14.8 22.06, 11.84 22.33, 9.46 21.92 C7.08 21.51, 4.2 20.18, 2.57 18.39 C0.95 16.59, -0.29 13.58, -0.28 11.14 C-0.28 8.71, 0.96 5.69, 2.61 3.79 C4.25 1.88, 8.32 0.36, 9.59 -0.29 C10.86 -0.94, 10.18 -0.33, 10.24 -0.09 M10.82 -0.63 C13.25 -0.92, 16.9 0.43, 18.79 1.99 C20.68 3.54, 21.92 6.26, 22.17 8.69 C22.41 11.13, 21.56 14.4, 20.26 16.62 C18.97 18.83, 16.44 21.24, 14.39 21.97 C12.34 22.69, 10.06 21.8, 7.96 20.97 C5.87 20.13, 3.07 18.92, 1.82 16.96 C0.57 15, 0.04 11.63, 0.44 9.2 C0.84 6.77, 2.46 3.96, 4.23 2.37 C6 0.78, 9.93 -0.05, 11.06 -0.34 C12.19 -0.62, 10.92 0.29, 11.01 0.64" stroke="#1e1e1e" stroke-width="2" fill="none"></path></g><g stroke-linecap="round"><g transform="translate(1008.3855180236382 53.42737194665574) rotate(0 15.092405978227134 -3.6465654254679976)"><path d="M0 0 C7.11 -1.58, 15.63 -3.73, 30.18 -7.29 M0 0 C9.36 -1.78, 17.7 -4.08, 30.18 -7.29" stroke="#1e1e1e" stroke-width="2" fill="none"></path></g></g><mask></mask><g stroke-linecap="round"><g transform="translate(1060.8041085051345 46.14150814771892) rotate(0 14.417920698104751 12.289546476762666)"><path d="M0 0 C6.04 5.69, 13.18 11.49, 28.84 24.58 M0 0 C6.68 6.09, 14.19 12.15, 28.84 24.58" stroke="#1e1e1e" stroke-width="2" fill="none"></path></g></g><mask></mask><g stroke-linecap="round"><g transform="translate(1060.8004749791353 79.47854613944378) rotate(0 11.483095912982321 0.1717426971177929)"><path d="M0 0 C7.5 0.31, 14.43 0.84, 22.97 0.34 M0 0 C8.45 0.37, 16.57 0.18, 22.97 0.34" stroke="#1e1e1e" stroke-width="2" fill="none"></path></g></g><mask></mask><g stroke-linecap="round"><g transform="translate(1059.0757809559577 108.27216134379887) rotate(0 13.080569651263488 -9.719329766582291)"><path d="M0 0 C7.45 -5.36, 16.67 -12.74, 26.16 -19.44 M0 0 C8.8 -6.74, 18.01 -13.65, 26.16 -19.44" stroke="#1e1e1e" stroke-width="2" fill="none"></path></g></g><mask></mask><g stroke-linecap="round"><g transform="translate(1012.203826146224 59.328393590651785) rotate(0 13.500382528945181 7.672054842395141)"><path d="M0 0 C9.23 4.03, 17.66 9.94, 27 15.34 M0 0 C9.8 5.22, 19.36 11, 27 15.34" stroke="#1e1e1e" stroke-width="2" fill="none"></path></g></g><mask></mask><g stroke-linecap="round"><g transform="translate(1008.7326369438733 67.6592476762944) rotate(0 15.476780258685494 18.18830471511842)"><path d="M0 0 C11.74 13.5, 23.12 26.22, 30.95 36.38 M0 0 C9.25 10.84, 18.18 21.48, 30.95 36.38" stroke="#1e1e1e" stroke-width="2" fill="none"></path></g></g><mask></mask><g stroke-linecap="round"><g transform="translate(1009.9938923399175 87.03429706701036) rotate(0 15.852070724145221 -16.97338849429559)"><path d="M0 0 C7.48 -7.75, 13.83 -14.67, 31.7 -33.95 M0 0 C7.53 -8.38, 15.05 -16.53, 31.7 -33.95" stroke="#1e1e1e" stroke-width="2" fill="none"></path></g></g><mask></mask><g stroke-linecap="round"><g transform="translate(1011.1624693855188 94.04028561416021) rotate(0 14.341896650638375 -5.2103593713633245)"><path d="M0 0 C9.1 -3.01, 17.76 -6.54, 28.68 -10.42 M0 0 C8.26 -3.09, 16.92 -6.14, 28.68 -10.42" stroke="#1e1e1e" stroke-width="2" fill="none"></path></g></g><mask></mask><g stroke-linecap="round"><g transform="translate(1007.6555245047964 98.67990865544994) rotate(0 15.112100580412687 6.87520633958502)"><path d="M0 0 C7.73 3.82, 16.59 7.15, 30.22 13.75 M0 0 C8 3.91, 16.74 7.61, 30.22 13.75" stroke="#1e1e1e" stroke-width="2" fill="none"></path></g></g><mask></mask><g transform="translate(888.2117308794367 130.23147682997023) rotate(0 161.12954711914062 14.871888234129756)"><text x="0" y="0" font-family="Virgil, Segoe UI Emoji" font-size="23.79502117460764px" fill="#1e1e1e" text-anchor="start" style="white-space: pre;" direction="ltr" dominant-baseline="text-before-edge">quadratic score calculation</text></g><g stroke-opacity="0" fill-opacity="0" stroke-linecap="round" transform="translate(969.2890832337465 230.23232562823432) rotate(0 74.3456409012258 74.3456409012258)"><path d="M41.49 7.64 C49.88 1.71, 61.76 -0.67, 72.47 -0.97 C83.18 -1.26, 95.99 1.37, 105.76 5.87 C115.54 10.38, 124.39 17.69, 131.13 26.06 C137.87 34.42, 143.39 45.61, 146.21 56.05 C149.03 66.49, 150.23 77.96, 148.05 88.69 C145.87 99.42, 139.82 111.61, 133.12 120.42 C126.42 129.24, 117.45 136.71, 107.84 141.58 C98.23 146.44, 86.18 149.71, 75.48 149.6 C64.77 149.49, 53.47 145.64, 43.63 140.93 C33.8 136.21, 23.43 129.37, 16.46 121.31 C9.5 113.25, 4.28 102.82, 1.84 92.58 C-0.6 82.35, -0.29 70.4, 1.83 59.92 C3.95 49.44, 6.96 38.74, 14.56 29.69 C22.16 20.63, 40.96 9.83, 47.42 5.58 C53.87 1.33, 53.12 3.08, 53.3 4.19 M58.63 1.49 C68.48 -1.62, 82.03 0.32, 92.38 2.8 C102.73 5.28, 112.42 9.77, 120.72 16.38 C129.02 22.99, 137.41 32.38, 142.19 42.47 C146.96 52.56, 149.7 65.92, 149.37 76.91 C149.04 87.9, 145.38 99.14, 140.21 108.4 C135.04 117.66, 126.99 126.22, 118.33 132.47 C109.68 138.73, 98.39 143.75, 88.29 145.95 C78.19 148.14, 68.15 148.11, 57.75 145.63 C47.36 143.16, 34.5 137.81, 25.9 131.09 C17.31 124.36, 10.55 114.92, 6.17 105.28 C1.79 95.63, -0.89 83.82, -0.38 73.21 C0.13 62.6, 4.31 51.01, 9.23 41.61 C14.15 32.22, 20.67 23.55, 29.13 16.84 C37.6 10.13, 54.75 3.86, 60.01 1.35 C65.26 -1.17, 60.49 0.72, 60.66 1.73" stroke="#1e1e1e" stroke-width="1" fill="none"></path></g><g stroke-linecap="round" transform="translate(1000.6185818261533 292.7240282492844) rotate(0 13.05133729493599 9.855091426788476)"><path d="M4.93 0 C11.47 1.72, 16.33 -0.41, 21.18 0 M4.93 0 C8.31 -0.44, 12.46 -0.31, 21.18 0 M21.18 0 C23.68 1.85, 24.45 1.22, 26.1 4.93 M21.18 0 C26.37 -0.05, 28.1 1.01, 26.1 4.93 M26.1 4.93 C25.49 8.32, 25.79 12.98, 26.1 14.78 M26.1 4.93 C26.47 8.55, 26.28 11.52, 26.1 14.78 M26.1 14.78 C25.12 16.36, 24.44 18.88, 21.18 19.71 M26.1 14.78 C25.61 18.35, 23.71 19.58, 21.18 19.71 M21.18 19.71 C15.36 19.91, 10.12 20.34, 4.93 19.71 M21.18 19.71 C14.27 19.33, 8.08 19.14, 4.93 19.71 M4.93 19.71 C3.32 18.53, -1.4 17.35, 0 14.78 M4.93 19.71 C0.69 19.54, -0.6 18.39, 0 14.78 M0 14.78 C0.9 11.58, -0.2 8.01, 0 4.93 M0 14.78 C0.28 12.4, -0.12 10.74, 0 4.93 M0 4.93 C-1.98 0.42, 2.94 0.61, 4.93 0 M0 4.93 C-1.16 2.41, 3.17 1.75, 4.93 0" stroke="#1e1e1e" stroke-width="2" fill="none"></path></g><g stroke-linecap="round" transform="translate(1030.7165637512087 292.7240282492844) rotate(0 13.05133729493599 9.855091426788476)"><path d="M4.93 0 C9.35 -0.72, 10.87 -1.75, 21.18 0 M4.93 0 C9.82 -0.16, 15.76 0.82, 21.18 0 M21.18 0 C22.81 -0.43, 27.77 1.6, 26.1 4.93 M21.18 0 C26.46 -0.63, 28.22 2.28, 26.1 4.93 M26.1 4.93 C25.69 7.22, 26.3 9.61, 26.1 14.78 M26.1 4.93 C26.26 7.25, 25.92 8.85, 26.1 14.78 M26.1 14.78 C26.09 17.24, 24.04 19.96, 21.18 19.71 M26.1 14.78 C25.36 17.94, 24.74 20.67, 21.18 19.71 M21.18 19.71 C16.51 20.49, 14.97 19.17, 4.93 19.71 M21.18 19.71 C14.96 18.99, 10.82 19.14, 4.93 19.71 M4.93 19.71 C0.25 18.99, -0.83 17.92, 0 14.78 M4.93 19.71 C1.05 20.03, 1.95 19.18, 0 14.78 M0 14.78 C-0.25 12.59, -0.95 9.03, 0 4.93 M0 14.78 C-0.15 12.94, -0.55 10.48, 0 4.93 M0 4.93 C1.29 2.25, 0.64 0.67, 4.93 0 M0 4.93 C1.52 3.39, 3.07 0.79, 4.93 0" stroke="#1e1e1e" stroke-width="2" fill="none"></path></g><g stroke-linecap="round" transform="translate(1060.54819185392 292.7240282492844) rotate(0 13.05133729493599 9.855091426788476)"><path d="M4.93 0 C10.6 -1.54, 18.52 -1.39, 21.18 0 M4.93 0 C8.74 0.8, 12.52 -0.13, 21.18 0 M21.18 0 C26.12 -0.04, 27.84 1.09, 26.1 4.93 M21.18 0 C26.58 0.63, 23.81 0.16, 26.1 4.93 M26.1 4.93 C26.33 8.15, 25.28 10.48, 26.1 14.78 M26.1 4.93 C25.88 8.27, 26.12 12.26, 26.1 14.78 M26.1 14.78 C25.68 18.32, 23.81 19.6, 21.18 19.71 M26.1 14.78 C26.39 19.03, 22.89 18.66, 21.18 19.71 M21.18 19.71 C17.32 19.21, 11.45 18.37, 4.93 19.71 M21.18 19.71 C17.88 19.11, 12.65 19.29, 4.93 19.71 M4.93 19.71 C0.81 19.56, -0.52 18.35, 0 14.78 M4.93 19.71 C3.6 20.82, 0.13 20.29, 0 14.78 M0 14.78 C-0.84 11.51, -0.94 8.32, 0 4.93 M0 14.78 C-0.47 12.09, 0.34 10.15, 0 4.93 M0 4.93 C-1 2.31, 2.97 1.52, 4.93 0 M0 4.93 C1.42 2.43, -0.08 -0.48, 4.93 0" stroke="#1e1e1e" stroke-width="2" fill="none"></path></g><g stroke-linecap="round" transform="translate(1029.1184408171348 249.57470902929163) rotate(0 13.05133729493599 9.855091426788476)"><path d="M4.93 0 C9.94 -1.29, 12.8 -1.21, 21.18 0 M4.93 0 C8.66 -0.32, 14.41 -0.17, 21.18 0 M21.18 0 C26.2 -0.55, 27.95 2.19, 26.1 4.93 M21.18 0 C22.16 -1.48, 25 0.84, 26.1 4.93 M26.1 4.93 C25.35 8.79, 26.94 11.69, 26.1 14.78 M26.1 4.93 C26.05 7.98, 25.95 11.51, 26.1 14.78 M26.1 14.78 C25.45 17.96, 24.71 20.54, 21.18 19.71 M26.1 14.78 C24.53 17.02, 24.9 18.43, 21.18 19.71 M21.18 19.71 C16.2 18.24, 9.04 18.26, 4.93 19.71 M21.18 19.71 C17 19.32, 13.62 19.55, 4.93 19.71 M4.93 19.71 C1.12 19.99, 1.7 19.04, 0 14.78 M4.93 19.71 C1.77 21.93, 1.37 17.71, 0 14.78 M0 14.78 C-0.87 11.63, -0.48 7.05, 0 4.93 M0 14.78 C0.42 11.65, -0.15 8.38, 0 4.93 M0 4.93 C1.32 3.16, 2.88 0.68, 4.93 0 M0 4.93 C-1.72 1.17, 3.66 -1.72, 4.93 0" stroke="#1e1e1e" stroke-width="2" fill="none"></path></g><g stroke-linecap="round"><g transform="translate(1042.1195892348524 268.8062027038036) rotate(0 0 11.945453530742952)"><path d="M-0.49 -0.25 C-0.48 3.66, -0.51 19.62, -0.47 23.73 M0.26 0.81 C0.48 4.78, 0.68 20.55, 0.53 24.35" stroke="#1e1e1e" stroke-width="2" fill="none"></path></g></g><mask></mask><g stroke-linecap="round"><g transform="translate(1012.5256914554633 293.00537953382445) rotate(0 30.056302432192297 -6.088327928572426)"><path d="M0 0 C-0.33 -3.35, 1.3 -6.76, 0 -13.41 M0 0 C0.47 -3.92, 0.51 -7.29, 0 -13.41 M0 -13.41 C11.33 -12.46, 24.6 -11.63, 60.11 -13.41 M0 -13.41 C13.46 -13.6, 26.02 -14.76, 60.11 -13.41 M60.11 -13.41 C60.23 -9.5, 59.97 -4.47, 60.11 1.23 M60.11 -13.41 C60.15 -8.81, 60.35 -2.81, 60.11 1.23" stroke="#1e1e1e" stroke-width="2" fill="none"></path></g></g><mask></mask><g transform="translate(904.0592083879022 321.97516069624726) rotate(0 139.5755157470703 15.918838940193837)"><text x="139.5755157470703" y="0" font-family="Virgil, Segoe UI Emoji" font-size="25.470142304310144px" fill="#1e1e1e" text-anchor="middle" style="white-space: pre;" direction="ltr" dominant-baseline="text-before-edge">merkle tree generation</text></g><g stroke-opacity="0.5" fill-opacity="0.5" transform="translate(576.8808109132948 26.808778366673096) rotate(0 87.890625 12)"><text x="0" y="0" font-family="Cascadia, Segoe UI Emoji" font-size="20px" fill="#1e1e1e" text-anchor="start" style="white-space: pre;" direction="ltr" dominant-baseline="text-before-edge">lambda function</text></g><g stroke-linecap="round"><g transform="translate(1044.1532509726223 165.86681941542201) rotate(0 0.6214515874390258 32.1528294585471)"><path d="M1.07 0.03 C1.18 10.84, 1.26 53.45, 1.2 64.19 M0.17 -1 C0.07 10.06, 0.31 54.52, 0.23 65.67" stroke="#1e1e1e" stroke-width="2" fill="none"></path></g><g transform="translate(1044.1532509726223 165.86681941542201) rotate(0 0.6214515874390258 32.1528294585471)"><path d="M-8.32 42.18 C-5.43 50.18, -2.7 57.55, 0.23 65.67 M-8.32 42.18 C-4.73 50.45, -3.08 57.51, 0.23 65.67" stroke="#1e1e1e" stroke-width="2" fill="none"></path></g><g transform="translate(1044.1532509726223 165.86681941542201) rotate(0 0.6214515874390258 32.1528294585471)"><path d="M8.79 42.18 C5.74 50.34, 2.54 57.7, 0.23 65.67 M8.79 42.18 C6.98 50.55, 3.23 57.62, 0.23 65.67" stroke="#1e1e1e" stroke-width="2" fill="none"></path></g></g><mask></mask><g mask="url(#mask-ytakn_TTln-GNMwE6RGEL)" stroke-linecap="round"><g transform="translate(107.60639847698639 614.9791204582916) rotate(0 217.34616881115832 -186.46716476596612)"><path d="M-0.27 0.07 C72.25 -62.1, 362.57 -311.91, 435.02 -374.05 M1.78 -0.94 C74.18 -62.91, 362.29 -311.37, 434.24 -373.09" stroke="#1e1e1e" stroke-width="2" fill="none"></path></g><g transform="translate(107.60639847698639 614.9791204582916) rotate(0 217.34616881115832 -186.46716476596612)"><path d="M422.01 -351.29 C425.88 -357.08, 427.49 -364.44, 434.24 -373.09 M422.01 -351.29 C426 -359, 430.29 -364.14, 434.24 -373.09" stroke="#1e1e1e" stroke-width="2" fill="none"></path></g><g transform="translate(107.60639847698639 614.9791204582916) rotate(0 217.34616881115832 -186.46716476596612)"><path d="M410.86 -364.25 C417.88 -366.24, 422.73 -369.81, 434.24 -373.09 M410.86 -364.25 C418.38 -367.79, 426.22 -368.81, 434.24 -373.09" stroke="#1e1e1e" stroke-width="2" fill="none"></path></g></g><mask id="mask-ytakn_TTln-GNMwE6RGEL"><rect x="0" y="0" fill="#fff" width="642.2987360993031" height="1087.9134499902239"></rect><rect x="177.2963172881447" y="394.9119556923256" fill="#000" width="295.3125" height="67.2" opacity="1"></rect></mask><g transform="translate(177.2963172881447 394.9119556923256) rotate(0 147.68251585252582 33.07896727435286)"><text x="147.65625" y="0" font-family="Cascadia, Segoe UI Emoji" font-size="28px" fill="#1e1e1e" text-anchor="middle" style="white-space: pre;" direction="ltr" dominant-baseline="text-before-edge">1. get merkle tree</text><text x="147.65625" y="33.6" font-family="Cascadia, Segoe UI Emoji" font-size="28px" fill="#1e1e1e" text-anchor="middle" style="white-space: pre;" direction="ltr" dominant-baseline="text-before-edge">root</text></g><g mask="url(#mask-EL12Pc7pZ2DMr-MDU6-Es)" stroke-linecap="round"><g transform="translate(128.0985501229136 673.3230095601416) rotate(0 210.49415905484773 0)"><path d="M1.19 0.07 C71.51 0.1, 351.01 0.43, 421.16 0.35 M0.35 -0.93 C70.61 -1.3, 350.04 -1.87, 420.3 -1.59" stroke="#1e1e1e" stroke-width="2" fill="none"></path></g><g transform="translate(128.0985501229136 673.3230095601416) rotate(0 210.49415905484773 0)"><path d="M396.8 6.95 C402.36 5.02, 408.26 4.56, 420.3 -1.59 M396.8 6.95 C403.95 4.42, 410.18 1.73, 420.3 -1.59" stroke="#1e1e1e" stroke-width="2" fill="none"></path></g><g transform="translate(128.0985501229136 673.3230095601416) rotate(0 210.49415905484773 0)"><path d="M396.81 -10.16 C402.39 -8.12, 408.29 -4.61, 420.3 -1.59 M396.81 -10.16 C403.91 -8.13, 410.14 -6.26, 420.3 -1.59" stroke="#1e1e1e" stroke-width="2" fill="none"></path></g></g><mask id="mask-EL12Pc7pZ2DMr-MDU6-Es"><rect x="0" y="0" fill="#fff" width="649.086868232609" height="773.3230095601416"></rect><rect x="199.13958417776132" y="639.7230095601417" fill="#000" width="278.90625" height="67.2" opacity="1"></rect></mask><g transform="translate(199.13958417776132 639.7230095601417) rotate(0 139.7119016219303 32.94619085559407)"><text x="139.453125" y="0" font-family="Cascadia, Segoe UI Emoji" font-size="28px" fill="#1e1e1e" text-anchor="middle" style="white-space: pre;" direction="ltr" dominant-baseline="text-before-edge">2. clear auction </text><text x="139.453125" y="33.6" font-family="Cascadia, Segoe UI Emoji" font-size="28px" fill="#1e1e1e" text-anchor="middle" style="white-space: pre;" direction="ltr" dominant-baseline="text-before-edge">and get tax</text></g><g mask="url(#mask-nIGmAR_UGRbmcZOidLjYs)" stroke-linecap="round"><g transform="translate(100.02283561955994 721.0649125868445) rotate(0 222.60030784801813 215.93630155943538)"><path d="M-0.8 0.7 C73.33 72.39, 371.54 359.02, 445.74 431.05 M0.98 0.02 C74.92 71.77, 370.76 360.32, 445.08 432.15" stroke="#1e1e1e" stroke-width="2" fill="none"></path></g><g transform="translate(100.02283561955994 721.0649125868445) rotate(0 222.60030784801813 215.93630155943538)"><path d="M422.27 421.92 C432.2 426.87, 438.34 428.58, 445.08 432.15 M422.27 421.92 C430.09 425.31, 439.38 430.66, 445.08 432.15" stroke="#1e1e1e" stroke-width="2" fill="none"></path></g><g transform="translate(100.02283561955994 721.0649125868445) rotate(0 222.60030784801813 215.93630155943538)"><path d="M434.19 409.65 C439.67 419.2, 441.28 425.57, 445.08 432.15 M434.19 409.65 C437.37 417.65, 442.1 427.69, 445.08 432.15" stroke="#1e1e1e" stroke-width="2" fill="none"></path></g></g><mask id="mask-nIGmAR_UGRbmcZOidLjYs"><rect x="0" y="0" fill="#fff" width="645.2234513155962" height="1252.9375157057152"></rect><rect x="174.96689346757807" y="869.80121414628" fill="#000" width="295.3125" height="134.4" opacity="1"></rect></mask><g transform="translate(174.96689346757807 869.80121414628) rotate(0 147.52844528071583 67.35196368902893)"><text x="147.65625" y="0" font-family="Cascadia, Segoe UI Emoji" font-size="28px" fill="#1e1e1e" text-anchor="middle" style="white-space: pre;" direction="ltr" dominant-baseline="text-before-edge">3. create new Drop</text><text x="147.65625" y="33.6" font-family="Cascadia, Segoe UI Emoji" font-size="28px" fill="#1e1e1e" text-anchor="middle" style="white-space: pre;" direction="ltr" dominant-baseline="text-before-edge">with merkle tree </text><text x="147.65625" y="67.2" font-family="Cascadia, Segoe UI Emoji" font-size="28px" fill="#1e1e1e" text-anchor="middle" style="white-space: pre;" direction="ltr" dominant-baseline="text-before-edge">root (1) and tax </text><text x="147.65625" y="100.80000000000001" font-family="Cascadia, Segoe UI Emoji" font-size="28px" fill="#1e1e1e" text-anchor="middle" style="white-space: pre;" direction="ltr" dominant-baseline="text-before-edge">(2)</text></g></svg>